<svg width="1200" height="630" viewBox="0 0 1200 630" xmlns="http://www.w3.org/2000/svg">
<defs>
  <radialGradient id="orb1" cx="50%" cy="50%" r="50%">
    <stop offset="0%" stop-color="#E84F0E" stop-opacity="0.35"/>
    <stop offset="100%" stop-color="#E84F0E" stop-opacity="0"/>
  </radialGradient>
  <radialGradient id="orb2" cx="50%" cy="50%" r="50%">
    <stop offset="0%" stop-color="#c43d08" stop-opacity="0.22"/>
    <stop offset="100%" stop-color="#c43d08" stop-opacity="0"/>
  </radialGradient>
  <radialGradient id="orb3" cx="50%" cy="50%" r="50%">
    <stop offset="0%" stop-color="#ff6a1a" stop-opacity="0.18"/>
    <stop offset="100%" stop-color="#ff6a1a" stop-opacity="0"/>
  </radialGradient>
</defs>

<rect width="1200" height="630" fill="#0D1117"/>
<rect x="0" y="200" width="1200" height="430" fill="#161D28" opacity="0.6"/>
<rect x="600" y="0" width="600" height="630" fill="#1a1410" opacity="0.5"/>

<ellipse cx="160" cy="520" rx="420" ry="380" fill="url(#orb1)"/>
<ellipse cx="1080" cy="80" rx="340" ry="300" fill="url(#orb2)"/>
<ellipse cx="620" cy="630" rx="280" ry="200" fill="url(#orb3)"/>

<line x1="0" y1="210" x2="1200" y2="210" stroke="#ffffff" stroke-opacity="0.025" stroke-width="1"/>
<line x1="0" y1="420" x2="1200" y2="420" stroke="#ffffff" stroke-opacity="0.025" stroke-width="1"/>
<line x1="400" y1="0" x2="400" y2="630" stroke="#ffffff" stroke-opacity="0.025" stroke-width="1"/>
<line x1="800" y1="0" x2="800" y2="630" stroke="#ffffff" stroke-opacity="0.025" stroke-width="1"/>

<rect x="80" y="72" width="90" height="28" rx="14" fill="#E84F0E" opacity="0.15"/>
<rect x="80" y="72" width="90" height="28" rx="14" fill="none" stroke="#E84F0E" stroke-opacity="0.4" stroke-width="1"/>
<circle cx="100" cy="86" r="5" fill="#E84F0E"/>
<text x="114" y="91" font-family="Arial, sans-serif" font-size="12" font-weight="600" fill="#E84F0E" letter-spacing="1.5">LIVE</text>

<text x="80" y="158" font-family="Arial Black, Arial, sans-serif" font-size="22" font-weight="900" fill="white" opacity="0.9" letter-spacing="4">SHOFAR <tspan fill="#E84F0E">LIVE STUDIO</tspan></text>
<rect x="80" y="178" width="60" height="2" rx="1" fill="#E84F0E" opacity="0.7"/>

<text x="80" y="290" font-family="Arial Black, Arial, sans-serif" font-size="82" font-weight="900" fill="white" letter-spacing="-1">Broadcast</text>
<text x="80" y="390" font-family="Arial Black, Arial, sans-serif" font-size="82" font-weight="900" fill="white" letter-spacing="-1">with</text>
<text x="80" y="490" font-family="Arial Black, Arial, sans-serif" font-size="82" font-weight="900" fill="#E84F0E" letter-spacing="-1">Confidence.</text>

<rect x="780" y="120" width="360" height="110" rx="12" fill="#161D28" stroke="#ffffff" stroke-opacity="0.07" stroke-width="1"/>
<rect x="800" y="140" width="8" height="70" rx="4" fill="#E84F0E" opacity="0.7"/>
<rect x="820" y="148" width="140" height="10" rx="5" fill="#ffffff" opacity="0.25"/>
<rect x="820" y="168" width="100" height="8" rx="4" fill="#ffffff" opacity="0.12"/>
<rect x="820" y="188" width="120" height="8" rx="4" fill="#ffffff" opacity="0.12"/>
<rect x="1060" y="148" width="60" height="28" rx="6" fill="#E84F0E" opacity="0.85"/>

<rect x="780" y="248" width="360" height="110" rx="12" fill="#161D28" stroke="#ffffff" stroke-opacity="0.07" stroke-width="1"/>
<rect x="800" y="268" width="8" height="70" rx="4" fill="#ffffff" opacity="0.15"/>
<rect x="820" y="276" width="160" height="10" rx="5" fill="#ffffff" opacity="0.25"/>
<rect x="820" y="296" width="110" height="8" rx="4" fill="#ffffff" opacity="0.12"/>
<rect x="820" y="316" width="130" height="8" rx="4" fill="#ffffff" opacity="0.12"/>
<rect x="1060" y="276" width="60" height="28" rx="6" fill="#ffffff" opacity="0.08" stroke="#ffffff" stroke-opacity="0.15" stroke-width="1"/>

<rect x="780" y="376" width="360" height="110" rx="12" fill="#161D28" stroke="#ffffff" stroke-opacity="0.07" stroke-width="1"/>
<rect x="800" y="396" width="8" height="70" rx="4" fill="#22c55e" opacity="0.6"/>
<rect x="820" y="404" width="150" height="10" rx="5" fill="#ffffff" opacity="0.25"/>
<rect x="820" y="424" width="90" height="8" rx="4" fill="#ffffff" opacity="0.12"/>
<rect x="820" y="444" width="115" height="8" rx="4" fill="#ffffff" opacity="0.12"/>
<rect x="1060" y="404" width="60" height="28" rx="6" fill="#22c55e" opacity="0.15" stroke="#22c55e" stroke-opacity="0.3" stroke-width="1"/>

<text x="80" y="578" font-family="Arial, sans-serif" font-size="16" fill="white" opacity="0.35" letter-spacing="0.5">Church broadcast control · Lower thirds · Live ticker · OBS integration</text>
<text x="1120" y="578" font-family="Arial, sans-serif" font-size="14" fill="white" opacity="0.25" text-anchor="end">shofarlivestudio.co.za</text>
</svg>
